<?xml version="1.0" encoding="iso-8859-1"?>
<!-- Generator: Adobe Illustrator 19.0.0, SVG Export Plug-In . SVG Version: 6.00 Build 0)  -->
<svg version="1.1" id="Capa_1" xmlns="http://www.w3.org/2000/svg" xmlns:xlink="http://www.w3.org/1999/xlink" x="0px" y="0px"
	 viewBox="0 0 512 512" style="enable-background:new 0 0 512 512;" xml:space="preserve">
<g>
	<polyline style="fill:#EA3836;" points="187.733,418.133 119.467,418.133 119.467,162.133 187.733,162.133 187.733,418.133 	"/>
	<polyline style="fill:#EA3836;" points="375.467,418.133 375.467,76.8 452.267,76.8 452.267,418.133 	"/>
</g>
<g>
	<rect x="307.2" y="145.067" style="fill:#FFD33F;" width="68.267" height="273.067"/>
	<rect x="51.2" y="59.733" style="fill:#FFD33F;" width="68.267" height="358.4"/>
</g>
<rect x="187.733" y="128" style="fill:#91CECE;" width="59.733" height="290.133"/>
<rect x="247.467" y="298.667" style="fill:#383856;" width="59.733" height="85.333"/>
<g>
	<path style="fill:#D62121;" d="M119.467,379.409v38.724h68.267v-56.021C164.932,368.759,142.003,374.485,119.467,379.409z"/>
	<path style="fill:#D62121;" d="M375.467,273.203v144.93h76.8v-240.23C435.081,215.62,408.67,248.397,375.467,273.203z"/>
</g>
<g>
	<path style="fill:#FFAC3E;" d="M307.2,316.006v102.127h68.267v-144.93C354.142,289.638,331.281,303.974,307.2,316.006z"/>
	<path style="fill:#FFAC3E;" d="M51.2,392.303v25.83h68.267v-38.724C96.077,384.521,73.131,388.77,51.2,392.303z"/>
</g>
<path style="fill:#83B2B7;" d="M187.733,362.112v56.021h59.733v-75.947C227.9,349.611,207.872,356.233,187.733,362.112z"/>
<path style="fill:#202033;" d="M247.467,342.187V384H307.2v-67.994C287.77,325.803,267.836,334.541,247.467,342.187z"/>
<rect x="247.467" y="76.8" style="fill:#EA3836;" width="59.733" height="221.867"/>
<rect x="8.533" y="418.133" style="fill:#874D1B;" width="494.933" height="34.133"/>
<rect x="332.8" y="187.733" style="fill:#FFFFFF;" width="17.067" height="187.733"/>
<g>
	<rect x="247.467" y="76.8" style="fill:#383856;" width="59.733" height="31.292"/>
	<rect x="51.2" y="102.4" style="fill:#383856;" width="68.267" height="34.133"/>
</g>
<rect x="145.067" y="238.933" style="fill:#FFFFFF;" width="17.067" height="102.4"/>
<rect x="119.467" y="162.133" style="fill:#383856;" width="68.267" height="34.133"/>
<rect x="119.467" y="384" style="fill:#202033;" width="68.267" height="34.133"/>
<rect x="247.467" y="384" style="fill:#D62121;" width="59.733" height="34.133"/>
<rect x="375.467" y="119.467" style="fill:#383856;" width="76.8" height="34.133"/>
<rect x="375.467" y="341.333" style="fill:#202033;" width="76.8" height="34.133"/>
<path style="fill:#6B3713;" d="M476.698,418.133c-35.328,34.133-109.764,34.133-109.764,34.133h136.533v-34.133H476.698z"/>
<path d="M512,409.6h-51.2V76.8c0-4.71-3.823-8.533-8.533-8.533h-76.8c-4.71,0-8.533,3.823-8.533,8.533v59.733h-51.2V76.8
	c0-4.71-3.823-8.533-8.533-8.533h-59.733c-4.71,0-8.533,3.823-8.533,8.533v42.667h-51.2c-4.71,0-8.533,3.823-8.533,8.533v25.6H128
	V59.733c0-4.71-3.823-8.533-8.533-8.533H51.2c-4.71,0-8.533,3.823-8.533,8.533V409.6H0v51.2h512V409.6z M384,409.6V384h59.733v25.6
	H384z M443.733,366.933H384v-17.067h59.733V366.933z M443.733,332.8H384V162.133h59.733V332.8z M443.733,145.067H384V128h59.733
	V145.067z M443.733,85.333v25.6H384v-25.6H443.733z M366.933,153.6v256h-51.2v-256H366.933z M256,128v-8.533h42.667v170.667H256V128
	z M256,307.2h42.667v68.267H256V307.2z M256,392.533h42.667V409.6H256V392.533z M298.667,85.333V102.4H256V85.333H298.667z
	 M196.267,136.533h42.667V409.6h-42.667V136.533z M110.933,128h-51.2v-17.067h51.2V128z M179.2,375.467H128V204.8h51.2V375.467z
	 M128,392.533h51.2V409.6H128V392.533z M179.2,170.667v17.067H128v-17.067H179.2z M110.933,68.267v25.6h-51.2v-25.6H110.933z
	 M59.733,145.067h51.2V409.6h-51.2V145.067z M494.933,443.733H17.067v-17.067h477.867V443.733z"/>
<g>
</g>
<g>
</g>
<g>
</g>
<g>
</g>
<g>
</g>
<g>
</g>
<g>
</g>
<g>
</g>
<g>
</g>
<g>
</g>
<g>
</g>
<g>
</g>
<g>
</g>
<g>
</g>
<g>
</g>
</svg>
